<?xml version="1.0" encoding="UTF-8"?> <svg xmlns="http://www.w3.org/2000/svg" viewBox="0 0 641.5 176.7"><path d="M154.8 69.3V0h-45.6v102.2c0 22.4-7.3 34.4-28.7 34.4-23.5 0-30.8-10.9-30.8-35.4V0H0v104.5c0 49 27.1 72.2 79.5 72.2 14.3 0 26.6-2.3 36.9-6.7l38.4-100.7z" fill="#0047ba"></path><path d="M194.6 0h47.7l68.8 173.6h-54.2l-8.3-24.5h-61.8l-8.1 24.5h-50.3L194.6 0zM235 110.3l-9.4-27.4c-5.2-15.1-7.8-29.2-8.1-30.2h-.5c-.3 1-3.1 15.4-8.1 30.2l-9.1 27.4H235z" fill="#f3c300"></path><path d="M357.8 40.4h-46.7V0h143.1v40.4h-46.7v133.2h-49.8V40.4zM463 0h53.7l30 91.5c4.2 13 7.6 26.8 7.8 27.9h.5c.3-1 3.9-15.1 7.8-27.9L591.5 0h50l-64.6 173.6H530L463 0z" fill="#6b6966"></path></svg> 